<?xml version="1.0" standalone="no"?><!DOCTYPE svg PUBLIC "-//W3C//DTD SVG 1.1//EN" "http://www.w3.org/Graphics/SVG/1.1/DTD/svg11.dtd"><svg class="icon" width="200px" height="200.00px" viewBox="0 0 1024 1024" version="1.1" xmlns="http://www.w3.org/2000/svg"><path d="M146.285714 898.612245a94.040816 94.040816 0 0 1-94.040816-94.040816v-376.163266a94.040816 94.040816 0 0 1 188.081633 0v376.163266A94.040816 94.040816 0 0 1 146.285714 898.612245z m0-501.551021a31.346939 31.346939 0 0 0-31.346938 31.346939v376.163266a31.346939 31.346939 0 0 0 62.693877 0v-376.163266A31.346939 31.346939 0 0 0 146.285714 397.061224z" fill="#333333" /><path d="M512 898.612245a94.040816 94.040816 0 0 1-94.040816-94.040816v-543.346939a94.040816 94.040816 0 0 1 188.081632 0v543.346939a94.040816 94.040816 0 0 1-94.040816 94.040816z m0-668.734694a31.346939 31.346939 0 0 0-31.346939 31.346939v543.346939a31.346939 31.346939 0 0 0 62.693878 0v-543.346939a31.346939 31.346939 0 0 0-31.346939-31.346939z" fill="#3399FF" /><path d="M877.714286 898.612245a94.040816 94.040816 0 0 1-94.040817-94.040816v-710.530613a94.040816 94.040816 0 0 1 188.081633 0v710.530613A94.040816 94.040816 0 0 1 877.714286 898.612245z m0-835.918367a31.346939 31.346939 0 0 0-31.346939 31.346938v710.530613a31.346939 31.346939 0 0 0 62.693877 0v-710.530613A31.346939 31.346939 0 0 0 877.714286 62.693878zM971.755102 1024h-919.510204a31.346939 31.346939 0 0 1 0-62.693878h919.510204a31.346939 31.346939 0 0 1 0 62.693878z" fill="#333333" /></svg>