<?xml version="1.0" standalone="no"?><!DOCTYPE svg PUBLIC "-//W3C//DTD SVG 1.1//EN" "http://www.w3.org/Graphics/SVG/1.1/DTD/svg11.dtd"><svg class="icon" width="200px" height="200.00px" viewBox="0 0 1024 1024" version="1.1" xmlns="http://www.w3.org/2000/svg"><path fill="#7dc5eb" d="M512 160c-29.952 0-55.104 0.576-75.584 4.032-21.312 3.648-40.64 10.88-56.32 26.624-16.256 16.32-22.656 36.416-25.472 57.408-2.624 19.52-2.624 43.968-2.56 72.32v81.664a206.4 206.4 0 0 0-14.336-1.728 684.16 684.16 0 0 0-59.52-1.728h-2.944c-28.416 0-52.864 0-72.384 2.624-20.992 2.816-41.088 9.216-57.408 25.472-16.32 16.32-22.656 36.48-25.472 57.408-2.688 19.584-2.688 44.032-2.688 72.384v350.208h-32a32 32 0 0 0 0 64h853.376a32 32 0 1 0 0-64h-32v-250.112c0-28.352 0-52.8-2.624-72.32-2.816-20.992-9.216-41.088-25.536-57.408-16.256-16.32-36.416-22.656-57.344-25.536-19.584-2.56-44.032-2.56-72.384-2.56h-3.072c-19.392 0-41.024 0-59.52 1.664a206.08 206.08 0 0 0-14.208 1.792v-181.76c0-28.416 0-52.864-2.624-72.384-2.816-20.992-9.152-41.088-25.472-57.408-15.68-15.68-35.008-22.976-56.32-26.624-20.48-3.456-45.632-4.032-75.52-4.032z m160 456.064c0-21.056 0.064-33.6 1.28-42.56a35.2 35.2 0 0 1 1.344-6.4l0.832-0.32c3.648-1.024 9.088-1.92 16.64-2.624 15.232-1.408 34.048-1.472 54.592-1.472 31.04 0 51.2 0.064 65.92 2.112 13.888 1.856 18.24 4.864 20.672 7.296 2.432 2.432 5.44 6.784 7.36 20.672 1.92 14.784 2.048 34.88 2.048 65.92v248H672V616.064z m-320-105.728v396.352H181.312V558.592c0-31.104 0.064-51.2 2.112-65.92 1.856-13.888 4.864-18.24 7.296-20.736 2.432-2.432 6.784-5.44 20.672-7.296 14.784-1.92 34.88-2.048 65.92-2.048 20.608 0 39.36 0 54.592 1.408 7.552 0.704 12.992 1.664 16.64 2.688l0.832 0.256a35.456 35.456 0 0 1 1.344 6.4c1.088 8.192 1.28 19.264 1.28 36.992z m256 100.544v295.808h-192V514.048 322.496c0-31.04 0.064-51.136 2.048-65.92 1.92-13.888 4.864-18.24 7.36-20.672 3.072-3.072 8.192-6.4 21.76-8.768C461.568 224.704 481.6 224 512 224c30.4 0 50.432 0.64 64.832 3.2 13.568 2.24 18.752 5.632 21.76 8.704 2.496 2.432 5.504 6.784 7.36 20.672 1.984 14.784 2.048 34.88 2.048 65.92v288.384z"  /></svg>