<?xml version="1.0" standalone="no"?><!DOCTYPE svg PUBLIC "-//W3C//DTD SVG 1.1//EN" "http://www.w3.org/Graphics/SVG/1.1/DTD/svg11.dtd"><svg class="icon" width="200px" height="200.00px" viewBox="0 0 1024 1024" version="1.1" xmlns="http://www.w3.org/2000/svg"><path fill="#dbdbdb" d="M453.632 95.744c11.264-22.592 31.36-42.368 58.368-42.368 27.072 0 47.04 19.84 58.24 42.496l29.632 59.776c-0.512-2.496 5.376 2.048 1.152 1.344l54.464 9.152c24.512 4.096 48.64 17.728 56.64 42.88 8 25.088-3.84 50.112-21.376 67.712h0.128l-42.368 42.624c2.944-2.944 0.64 3.584-0.384 1.536l12.16 52.736c3.072 13.44 4.096 26.304 1.728 39.232a56.96 56.96 0 0 1-21.248 35.648 56.64 56.64 0 0 1-40.384 9.6 95.296 95.296 0 0 1-36.864-13.76l-51.008-30.336c4.032 2.432-4.736 2.24-1.28 0.128l-50.752 30.208c-11.84 7.104-23.808 12.16-36.864 13.76a56.768 56.768 0 0 1-40.32-9.6c-24.192-17.792-25.728-47.936-19.52-74.88l12.096-52.736-0.128 0.128c-0.896 3.968-3.584-4.864-0.384-1.664l-42.24-42.624c-17.472-17.6-29.184-42.624-21.248-67.712s32.128-38.784 56.64-42.88l54.4-9.152c-0.768-0.896 2.304-3.968 0.64-0.384l0.064-0.256 30.016-60.608z m58.24 26.624a58.88 58.88 0 0 0-1.024 1.92h0.128l-29.952 60.16c-10.368 21.376-24.32 31.744-47.36 35.648h-0.192l-54.464 9.152a58.752 58.752 0 0 0-2.368 0.448 55.04 55.04 0 0 0 1.856 1.92l42.368 42.624c17.536 17.664 22.72 36.672 17.408 60.608v0.256l-12.16 52.928c-0.64 3.008-1.152 2.56-1.408 2.368-0.128-0.128-0.192-0.192-0.192 0.448 0.576-0.256 0.896-0.384 1.28-0.448a7.68 7.68 0 0 0 1.856-0.896l50.944-30.528 0.256-0.128c22.4-13.12 43.904-13.312 66.432 0.128l50.944 30.528 1.024 0.448c0.256 0 0.448 0.064 0.896 0.32a5.632 5.632 0 0 1-0.128-1.024l-0.128-1.28-12.16-52.864-0.128-0.256c-5.312-23.936 0-42.88 17.536-60.608l42.24-42.624 0.128-0.128 1.728-1.792a55.232 55.232 0 0 0-2.368-0.448l-54.4-9.152c-23.04-3.84-37.376-14.272-47.744-35.584l-29.824-60.288-0.128-0.128a64.128 64.128 0 0 0-0.896-1.728zM506.24 522.624c-27.392 0-49.024 0-68.736 2.624-21.056 2.816-41.92 10.048-57.408 25.536-15.36 15.36-22.656 36.288-25.472 57.344l-0.32 2.496a102.976 102.976 0 0 0-4.544-0.768c-14.08-1.92-28.672-1.92-46.72-1.856h-31.36c-27.52 0-49.088 0-68.8 2.624-21.12 2.816-41.92 10.048-57.408 25.536-15.36 15.36-22.656 36.288-25.472 57.344-2.624 19.712-2.624 41.344-2.624 68.736v144.384h-32a31.936 31.936 0 0 0-12.224 61.568 32 32 0 0 0 12.224 2.432h853.248a32 32 0 0 0 0-64h-32v-58.944c0-27.456 0-49.088-2.624-68.8-2.816-21.056-10.048-41.92-25.472-57.408-15.488-15.36-36.352-22.656-57.408-25.472-19.712-2.624-41.344-2.624-68.736-2.624h-33.856a330.24 330.24 0 0 0-46.528 2.048v-18.56c0-27.392 0-49.024-2.624-68.736-2.816-21.056-10.048-41.92-25.536-57.344-15.36-15.488-36.288-22.72-57.344-25.536-19.712-2.624-41.344-2.624-68.736-2.624h-11.52z m-90.24 384v-224c0-30.144 0.128-52.096 1.984-65.92 1.92-13.76 4.096-17.408 7.36-20.672 3.328-3.328 6.848-5.44 20.672-7.296 13.76-1.856 35.84-2.112 65.984-2.112 30.144 0 52.224 0.256 65.984 2.112 13.824 1.92 17.28 3.968 20.672 7.296 3.264 3.264 5.504 6.912 7.36 20.736 1.856 13.76 1.984 35.712 1.984 65.92v223.936h-192z m-65.28-223.872c1.088 8 1.28 22.528 1.28 42.624v181.248H181.376V768c0-30.144 0.128-52.224 1.984-65.984 1.92-13.824 4.096-17.28 7.36-20.608 3.328-3.328 6.848-5.568 20.672-7.424 13.76-1.856 35.84-1.92 65.984-1.92h21.248c20.096 0 34.624 0.128 42.624 1.216 7.168 0.96 7.488 1.536 7.616 1.792l0.064 0.128c0.256 0.064 0.832 0.384 1.792 7.552z m374.656 74.624h21.248c30.144 0 52.224 0.128 65.984 1.984 13.824 1.92 17.28 4.096 20.672 7.36 3.264 3.328 5.504 6.848 7.36 20.672 1.856 13.76 1.984 35.84 1.984 65.984v53.248H672v-96c0-20.096 0.192-34.56 1.28-42.496 0.96-7.168 1.536-7.488 1.792-7.616l0.128-0.064c0.064-0.256 0.384-0.832 7.552-1.792a405.12 405.12 0 0 1 42.624-1.28z"  /></svg>